<svg xmlns="http://www.w3.org/2000/svg" width="133" height="36" viewBox="0 0 133 36">
  <g fill="#11110F" fill-rule="evenodd">
    <path d="M25.8175102 15.4241633L14.6990204 15.4241633C14.4121224 15.4241633 14.1795918 15.6566939 14.1795918 15.9439592L14.1795918 21.3799592C14.1795918 21.6664898 14.4121224 21.9001224 14.6990204 21.9001224L19.0362857 21.9001224 19.0362857 28.6537959C19.0362857 28.6537959 18.062449 28.9858776 15.3697959 28.9858776 12.1933469 28.9858776 7.75579592 27.8254286 7.75579592 18.0672245 7.75579592 8.30718367 12.3766531 7.02293878 16.7146531 7.02293878 20.4700408 7.02293878 22.0874694 7.68379592 23.1171429 8.00265306 23.4407755 8.10146939 23.7397959 7.77967347 23.7397959 7.49240816L24.9799592 2.24044898C24.9799592 2.106 24.9344082 1.944 24.7815918 1.83453061 24.363551 1.5362449 21.8130612.109102041 15.3697959.109102041 7.94755102.109102041.33355102 3.26681633.33355102 18.4477959.33355102 33.6287755 9.05069388 35.890898 16.3965306 35.890898 22.4786939 35.890898 26.1683265 33.2919184 26.1683265 33.2919184 26.3204082 33.2077959 26.3369388 32.9954694 26.3369388 32.8981224L26.3369388 15.9439592C26.3369388 15.6566939 26.1044082 15.4241633 25.8175102 15.4241633M83.1177551 1.92783673C83.1177551 1.63873469 82.8885306 1.40546939 82.6012653 1.40546939L76.3409388 1.40546939C76.0551429 1.40546939 75.8226122 1.63873469 75.8226122 1.92783673 75.8226122 1.92930612 75.824449 14.0264082 75.824449 14.0264082L66.0658776 14.0264082 66.0658776 1.92783673C66.0658776 1.63873469 65.8359184 1.40546939 65.5493878 1.40546939L59.2894286 1.40546939C59.0047347 1.40546939 58.7722041 1.63873469 58.7722041 1.92783673L58.7722041 34.687102C58.7722041 34.9762041 59.0047347 35.2113061 59.2894286 35.2113061L65.5493878 35.2113061C65.8359184 35.2113061 66.0658776 34.9762041 66.0658776 34.687102L66.0658776 20.6750204 75.824449 20.6750204C75.824449 20.6750204 75.8071837 34.686 75.8071837 34.687102 75.8071837 34.9762041 76.0393469 35.2113061 76.3258776 35.2113061L82.600898 35.2113061C82.8877959 35.2113061 83.1170204 34.9762041 83.1177551 34.687102L83.1177551 1.92783673M37.6310204 6.22689796C37.6310204 3.9724898 35.8240408 2.15081633 33.5942449 2.15081633 31.3666531 2.15081633 29.5578367 3.9724898 29.5578367 6.22689796 29.5578367 8.47873469 31.3666531 10.3051837 33.5942449 10.3051837 35.8240408 10.3051837 37.6310204 8.47873469 37.6310204 6.22689796M37.1835918 27.7769388C37.1835918 26.9371837 37.1835918 12.655102 37.1835918 12.655102 37.1835918 12.3678367 36.9517959 12.133102 36.6656327 12.133102L30.4247755 12.133102C30.1386122 12.133102 29.8825714 12.428449 29.8825714 12.7157143 29.8825714 12.7157143 29.8825714 30.9118776 29.8825714 34.3803673 29.8825714 35.0169796 30.2793061 35.2065306 30.7924898 35.2065306 30.7924898 35.2065306 33.4564898 35.2065306 36.415102 35.2065306 37.0322449 35.2065306 37.1835918 34.9034694 37.1835918 34.3700816 37.1835918 33.208898 37.1835918 28.6596735 37.1835918 27.7769388M106.909714 12.1826939L100.69751 12.1826939C100.412816 12.1826939 100.180653 12.4174286 100.180653 12.7061633L100.180653 28.7691429C100.180653 28.7691429 98.6021633 29.9237143 96.3620816 29.9237143 94.1223673 29.9237143 93.528 28.9072653 93.528 26.7142041 93.528 24.5182041 93.528 12.7061633 93.528 12.7061633 93.528 12.4174286 93.2965714 12.1826939 93.0111429 12.1826939L86.706 12.1826939C86.4216735 12.1826939 86.1884082 12.4174286 86.1884082 12.7061633 86.1884082 12.7061633 86.1884082 21.2602041 86.1884082 27.7747347 86.1884082 34.2896327 89.8192653 35.883551 94.8140816 35.883551 98.9122041 35.883551 102.216122 33.6195918 102.216122 33.6195918 102.216122 33.6195918 102.373347 34.8127347 102.444612 34.9541633 102.51551 35.0952245 102.70102 35.2377551 102.901592 35.2377551L106.912653 35.2197551C107.19698 35.2197551 107.430245 34.9846531 107.430245 34.6970204L107.428041 12.7061633C107.428041 12.4174286 107.196245 12.1826939 106.909714 12.1826939M121.43902 29.9038776C119.284163 29.8384898 117.82249 28.8606122 117.82249 28.8606122L117.82249 18.4863673C117.82249 18.4863673 119.264327 17.6025306 121.033469 17.4445714 123.270612 17.2443673 125.426204 17.9199184 125.426204 23.2567347 125.426204 28.8841224 124.453469 29.9949796 121.43902 29.9038776zM123.889224 11.4465306C120.360857 11.4465306 117.96098 13.0209796 117.96098 13.0209796L117.96098 1.92783673C117.96098 1.63873469 117.729551 1.40546939 117.44449 1.40546939L111.166163 1.40546939C110.880735 1.40546939 110.648939 1.63873469 110.648939 1.92783673L110.648939 34.687102C110.648939 34.9762041 110.880735 35.2113061 111.166898 35.2113061 111.167633 35.2113061 115.521429 35.2113061 115.522898 35.2113061 115.719061 35.2113061 115.867469 35.1102857 115.977306 34.9332245 116.085673 34.7572653 116.241796 33.4226939 116.241796 33.4226939 116.241796 33.4226939 118.808816 35.8552653 123.668449 35.8552653 129.374082 35.8552653 132.646041 32.9613061 132.646041 22.8640408 132.646041 12.7660408 127.420163 11.4465306 123.889224 11.4465306zM55.1762449 12.1301633L50.4800816 12.1301633C50.4800816 12.1301633 50.473102 5.9275102 50.473102 5.92640816 50.473102 5.69130612 50.3518776 5.57412245 50.0804082 5.57412245L43.6812245 5.57412245C43.4321633 5.57412245 43.2988163 5.68359184 43.2988163 5.92273469L43.2988163 12.3336735C43.2988163 12.3336735 40.0918776 13.1080408 39.8747755 13.1704898 39.6591429 13.2329388 39.5000816 13.4320408 39.5000816 13.6697143L39.5000816 17.6984082C39.5000816 17.9882449 39.7315102 18.2218776 40.0176735 18.2218776L43.2988163 18.2218776C43.2988163 18.2218776 43.2988163 22.4357143 43.2988163 27.9139592 43.2988163 35.1128571 48.3483673 35.82 51.7555102 35.82 53.3126939 35.82 55.1751429 35.3200408 55.4826122 35.2065306 55.6684898 35.1382041 55.7764898 34.9453469 55.7764898 34.7366939L55.782 30.3050204C55.782 30.0159184 55.5377143 29.7819184 55.2629388 29.7819184 54.988898 29.7819184 54.289102 29.8932245 53.5683673 29.8932245 51.2614286 29.8932245 50.4800816 28.8205714 50.4800816 27.4323673 50.4800816 26.0452653 50.4797143 18.2218776 50.4797143 18.2218776L55.1762449 18.2218776C55.4624082 18.2218776 55.6942041 17.9882449 55.6942041 17.6984082L55.6942041 12.6521633C55.6942041 12.3630612 55.4624082 12.1301633 55.1762449 12.1301633"/>
  </g>
</svg>
