<svg xmlns="http://www.w3.org/2000/svg" width="283" height="36" viewBox="0 0 283 36">
  <defs>
    <linearGradient id="atlassian-logo-a" x1="99.685%" x2="39.844%" y1="15.814%" y2="97.439%">
      <stop offset="0%" stop-color="#0052CC"/>
      <stop offset="92.3%" stop-color="#2684FF"/>
    </linearGradient>
  </defs>
  <g fill="none">
    <path fill="url(#atlassian-logo-a)" d="M10.7756471,16.4726471 C10.5669015,16.199489 10.2305728,16.055295 9.88879623,16.0924282 C9.54701969,16.1295613 9.24950566,16.3426207 9.10429412,16.6542353 L0.635294118,33.5869412 C0.478427814,33.900707 0.495196149,34.2733218 0.679611354,34.5717293 C0.864026559,34.8701368 1.18979482,35.0517903 1.54058824,35.0518235 L13.3332353,35.0518235 C13.7191222,35.0607825 14.0740166,34.8414121 14.2385294,34.4922353 C16.7823529,29.2357059 15.2407059,21.2431765 10.7756471,16.4726471 Z"/>
    <path fill="#2684FF" d="M16.9872353,1.07152941 C12.6941761,7.67717294 12.1986917,16.0559488 15.6832941,23.1215294 L21.3686471,34.4922353 C21.5400886,34.8351546 21.8905538,35.0517872 22.2739412,35.0518235 L34.0644706,35.0518235 C34.415264,35.0517903 34.7410323,34.8701368 34.9254475,34.5717293 C35.1098627,34.2733218 35.126631,33.900707 34.9697647,33.5869412 C34.9697647,33.5869412 19.1075294,1.85876471 18.7088824,1.06517647 C18.5480503,0.735550996 18.2128332,0.526978985 17.8460661,0.528332369 C17.4792991,0.529685753 17.1456304,0.740725977 16.9872353,1.07152941 Z"/>
    <path fill="#0052CC" d="M155.283882,14.6482941 C155.283882,18.8412353 157.228941,22.1701765 164.837118,23.6398235 C169.376294,24.5927647 170.327118,25.3254706 170.327118,26.8385294 C170.327118,28.3081765 169.374176,29.2595294 166.177059,29.2595294 C162.312939,29.1900535 158.526073,28.1653572 155.154176,26.2768235 L155.154176,33.1062353 C157.445471,34.2301765 160.471059,35.4838235 166.090765,35.4838235 C174.044647,35.4838235 177.200471,31.9367647 177.200471,26.6654118 M177.200471,26.6654118 C177.200471,21.6942353 174.563471,19.3595294 167.128412,17.7607059 C163.021765,16.8527647 162.027529,15.9453529 162.027529,14.6482941 C162.027529,13.0071176 163.497176,12.3141176 166.220471,12.3141176 C169.506,12.3141176 172.748118,13.3083529 175.817118,14.6917059 L175.817118,8.16405882 C172.874294,6.82462779 169.669242,6.16006648 166.436471,6.219 C159.087706,6.219 155.283882,9.41770588 155.283882,14.6482941"/>
    <polygon fill="#0052CC" points="257.47 6.651 257.47 35.052 263.522 35.052 263.522 13.395 266.072 19.144 274.631 35.052 282.239 35.052 282.239 6.651 276.188 6.651 276.188 24.98 273.896 19.662 267.023 6.651"/>
    <rect width="6.614" height="28.401" x="212.365" y="6.651" fill="#0052CC"/>
    <path fill="#0052CC" d="M204.733059,26.6654118 C204.733059,21.6942353 202.096059,19.3595294 194.661,17.7607059 C190.554353,16.8527647 189.560118,15.9453529 189.560118,14.6482941 C189.560118,13.0071176 191.029765,12.3141176 193.753059,12.3141176 C197.038588,12.3141176 200.280706,13.3083529 203.349706,14.6917059 L203.349706,8.16405882 C200.406883,6.82462779 197.20183,6.16006648 193.969059,6.219 C186.620294,6.219 182.816471,9.41770588 182.816471,14.6482941 C182.816471,18.8412353 184.761529,22.1701765 192.369706,23.6398235 C196.908882,24.5927647 197.859706,25.3254706 197.859706,26.8385294 C197.859706,28.3081765 196.906765,29.2595294 193.709647,29.2595294 C189.845527,29.1900535 186.058662,28.1653572 182.686765,26.2768235 L182.686765,33.1062353 C184.978059,34.2301765 188.003647,35.4838235 193.623353,35.4838235 C201.577235,35.4838235 204.733059,31.9367647 204.733059,26.6654118"/>
    <polygon fill="#0052CC" points="103.905 6.651 103.905 35.052 117.499 35.052 119.64 28.913 110.562 28.913 110.562 6.651"/>
    <polygon fill="#0052CC" points="77.047 6.651 77.047 12.789 84.396 12.789 84.396 35.052 91.052 35.052 91.052 12.789 98.92 12.789 98.92 6.651"/>
    <path fill="#0052CC" d="M67.3941176 6.651L58.6699412 6.651 48.7662353 35.0518235 56.3294118 35.0518235 57.7334118 30.2685882C61.1912418 31.2839252 64.8680524 31.2839252 68.3258824 30.2685882L69.7298824 35.0518235 77.2946471 35.0518235 67.3941176 6.651zM63.0317647 25.1470588C61.7997688 25.1469874 60.5741185 24.970672 59.3920588 24.6234706L63.0317647 12.2294118 66.6714706 24.6277059C65.4892028 24.9734744 64.2635566 25.148363 63.0317647 25.1470588zM140.935235 6.651L132.211588 6.651 122.307882 35.0518235 129.872647 35.0518235 131.276647 30.2685882C134.734477 31.2839252 138.411288 31.2839252 141.869118 30.2685882L143.273118 35.0518235 150.837882 35.0518235 140.935235 6.651zM136.573412 25.1470588C135.341416 25.1469874 134.115766 24.970672 132.933706 24.6234706L136.573412 12.2294118 140.213118 24.6277059C139.03085 24.9734744 137.805204 25.148363 136.573412 25.1470588zM242.811529 6.651L234.087882 6.651 224.184176 35.0518235 231.748941 35.0518235 233.152941 30.2685882C236.610771 31.2839252 240.287582 31.2839252 243.745412 30.2685882L245.149412 35.0518235 252.714706 35.0518235 242.811529 6.651zM238.447059 25.1470588C237.215063 25.1469874 235.989413 24.970672 234.807353 24.6234706L238.447059 12.2294118 242.086765 24.6277059C240.904497 24.9734744 239.678851 25.148363 238.447059 25.1470588z"/>
  </g>
</svg>
