<svg xmlns="http://www.w3.org/2000/svg" width="204" height="36" viewBox="0 0 204 36">
  <g fill="none" fill-rule="evenodd">
    <polyline fill="#FFFFFE" points="35.312 .168 11.81 .168 11.81 11.918 .059 11.918 .059 35.42 23.561 35.42 23.561 23.669 35.312 23.669 35.312 .168"/>
    <polyline fill="#A7DAE7" points=".059 23.669 .059 11.918 11.81 11.918 .059 11.918 .059 23.669"/>
    <polyline fill="#A7DAE7" points="23.561 35.42 11.81 35.42 11.81 23.669 .059 23.669 .059 11.918 11.81 11.918 11.81 23.669 23.561 23.669 23.561 35.42"/>
    <path fill="#1F2E38" d="M70.3431692,22.9040308 C71.1883385,21.0123692 72.9589846,19.7246769 75.2931692,19.7246769 C77.6273538,19.7246769 79.3578462,20.8113231 80.0822769,22.9040308 L70.3431692,22.9040308 Z M85.6359692,25.3185231 C85.6359692,19.5233538 81.4104,14.8954154 75.2530154,14.8954154 C69.4578462,14.8954154 64.7894769,19.5635077 64.7894769,25.3589538 C64.7894769,31.1541231 69.1357846,35.8227692 75.4139077,35.8227692 C79.7621538,35.8227692 82.8894462,33.7253538 84.6490154,30.7188 L80.2755692,28.1107385 C79.3478769,29.8910769 77.5672615,30.9932308 75.4540615,30.9932308 C72.5566154,30.9932308 70.7455385,29.5443692 70.1016923,27.3309231 L85.6359692,27.3309231 L85.6359692,25.3185231 Z M197.883692,25.3185231 C197.883692,22.3404923 195.710677,19.926 192.732369,19.926 C189.673754,19.926 187.339569,22.2200308 187.339569,25.3185231 C187.339569,28.4175692 189.673754,30.7517538 192.732369,30.7517538 C195.710677,30.7517538 197.883692,28.2968308 197.883692,25.3185231 Z M181.946769,25.3589538 C181.946769,18.2356615 187.178677,14.8954154 191.726308,14.8954154 C194.342123,14.8954154 196.394677,15.8610462 197.7228,17.2697538 L197.7228,6.04163077 L203.236338,6.04163077 L203.236338,35.4201231 L197.7228,35.4201231 L197.7228,33.1662462 C196.394677,34.7358462 194.261815,35.8227692 191.645723,35.8227692 C187.38,35.8227692 181.946769,32.4420923 181.946769,25.3589538 Z M177.896769,12.2350154 C179.718092,12.2350154 181.194646,10.7584615 181.194646,8.93686154 C181.194646,7.11553846 179.718092,5.63898462 177.896769,5.63898462 C176.075169,5.63898462 174.598615,7.11553846 174.598615,8.93686154 C174.598615,10.7584615 176.075169,12.2350154 177.896769,12.2350154 Z M175.14,15.2977846 L180.653262,15.2977846 L180.653262,35.4201231 L175.14,35.4201231 L175.14,20.6507077 L173.138954,20.6504308 L175.14,15.2977846 Z M160.452277,15.2977846 L165.925662,15.2977846 L165.925662,18.5978769 C166.931723,16.5051692 168.7428,15.2977846 171.479354,15.2977846 L173.6928,15.2977846 L171.693969,20.6504308 L170.191662,20.6504308 C167.253785,20.6504308 165.965815,22.1796 165.965815,25.9224923 L165.965815,35.4201231 L160.452277,35.4201231 L160.452277,15.2977846 Z M129.434954,20.7307385 C129.434954,12.3599077 135.753508,5.63898462 144.446123,5.63898462 C148.794092,5.63898462 152.450585,7.20443077 155.098246,9.69950769 C156.175477,10.7149846 157.085723,11.8844308 157.807662,13.1646462 L152.897538,16.1426769 C151.086738,12.8024308 148.309754,11.0719385 144.486554,11.0719385 C139.133908,11.0719385 134.988646,15.4586769 134.988646,20.7307385 C134.988646,26.1235385 139.0536,30.3895385 144.687877,30.3895385 C148.953877,30.3895385 151.972062,27.9747692 153.018277,24.2321538 L143.802554,24.2321538 L143.802554,18.8795077 L159.054923,18.8795077 L159.054923,21.1331077 C159.054923,29.0212615 153.420923,35.8227692 144.687877,35.8227692 C135.512031,35.8227692 129.434954,28.8603692 129.434954,20.7307385 Z M122.789077,25.3185231 C122.789077,22.3404923 120.615785,19.926 117.637754,19.926 C114.579138,19.926 112.244677,22.2200308 112.244677,25.3185231 C112.244677,28.4175692 114.579138,30.7517538 117.637754,30.7517538 C120.615785,30.7517538 122.789077,28.2968308 122.789077,25.3185231 Z M106.852154,25.3589538 C106.852154,18.2356615 112.083785,14.8954154 116.631415,14.8954154 C119.247231,14.8954154 121.299785,15.8610462 122.627908,17.2697538 L122.627908,6.04163077 L128.141446,6.04163077 L128.141446,35.4201231 L122.627908,35.4201231 L122.627908,33.1662462 C121.299785,34.7358462 119.166923,35.8227692 116.550831,35.8227692 C112.285108,35.8227692 106.852154,32.4420923 106.852154,25.3589538 Z M86.9253231,15.2977846 L92.3984308,15.2977846 L92.3984308,17.5513846 C93.6864,15.9014769 95.6583692,14.8954154 97.9521231,14.8954154 C102.701077,14.8954154 105.558646,17.9537538 105.558646,23.1455077 L105.558646,35.4201231 L99.9645231,35.4201231 L99.9645231,23.8699385 C99.9645231,21.1735385 98.7169846,19.6039385 96.2620615,19.6039385 C94.1693538,19.6039385 92.4388615,21.0528 92.4388615,24.4332 L92.4388615,35.4201231 L86.9253231,35.4201231 L86.9253231,15.2977846 Z M41.9078769,30.5507077 L47.0190462,26.5259077 C48.4679077,29.0212615 50.7616615,30.4698462 53.3774769,30.4698462 C56.2350462,30.4698462 57.7642154,28.6186154 57.7642154,26.6064923 C57.7642154,24.1917231 54.8263385,23.4271385 51.6871385,22.4612308 C47.7434769,21.2538462 43.3567385,19.7246769 43.3567385,14.0904 C43.3567385,9.3816 47.4615692,5.63898462 53.136,5.63898462 C57.9253846,5.63898462 60.6619385,7.45006154 63.0362769,9.90498462 L58.4080615,13.4064 C57.2009538,11.5953231 55.4704615,10.6294154 53.1764308,10.6294154 C50.5603385,10.6294154 49.1519077,12.0378462 49.1519077,13.8893538 C49.1519077,16.1426769 51.9690462,16.9075385 55.1079692,17.9537538 C59.0923385,19.2417231 63.5998154,21.0123692 63.5998154,26.6469231 C63.5998154,31.3150154 59.8973538,35.8227692 53.4179077,35.8227692 C48.1054154,35.8227692 44.5638462,33.5688923 41.9078769,30.5507077 Z"/>
    <polygon fill="#3A75AD" points=".059 35.42 11.81 35.42 11.81 23.669 .059 23.669"/>
    <path fill="#00B0D4" d="M35.3118462,23.6691692 L35.3118462,11.9184923 L35.3118462,23.6691692 M23.5608923,0.167538462 L11.8102154,0.167538462 L23.5608923,0.167538462"/>
    <polyline fill="#00B0D4" points="35.312 23.669 23.561 23.669 23.561 11.918 11.81 11.918 11.81 .168 23.561 .168 23.561 11.918 35.312 11.918 35.312 23.669"/>
    <polygon fill="#00B0D4" points="11.81 23.669 23.561 23.669 23.561 11.918 11.81 11.918"/>
    <polygon fill="#3A75AD" points="23.561 11.918 35.312 11.918 35.312 .168 23.561 .168"/>
  </g>
</svg>
