<svg xmlns="http://www.w3.org/2000/svg" width="160" height="48" viewBox="0 0 160 48">
  <path fill="#F22F46" d="M23.04,18.08 C23.04,20.8 20.8,23.04 18.08,23.04 C15.36,23.04 13.12,20.8 13.12,18.08 C13.12,15.36 15.36,13.12 18.08,13.12 C20.8,13.12 23.04,15.36 23.04,18.08 Z M18.08,24.96 C15.36,24.96 13.12,27.2 13.12,29.92 C13.12,32.64 15.36,34.88 18.08,34.88 C20.8,34.88 23.04,32.64 23.04,29.92 C23.04,27.2 20.8,24.96 18.08,24.96 Z M48,24 C48,37.28 37.28,48 24,48 C10.72,48 0,37.28 0,24 C0,10.72 10.72,0 24,0 C37.28,0 48,10.72 48,24 Z M41.6,24 C41.6,14.24 33.76,6.4 24,6.4 C14.24,6.4 6.4,14.24 6.4,24 C6.4,33.76 14.24,41.6 24,41.6 C33.76,41.6 41.6,33.76 41.6,24 Z M29.92,24.96 C27.2,24.96 24.96,27.2 24.96,29.92 C24.96,32.64 27.2,34.88 29.92,34.88 C32.64,34.88 34.88,32.64 34.88,29.92 C34.88,27.2 32.64,24.96 29.92,24.96 Z M29.92,13.12 C27.2,13.12 24.96,15.36 24.96,18.08 C24.96,20.8 27.2,23.04 29.92,23.04 C32.64,23.04 34.88,20.8 34.88,18.08 C34.88,15.36 32.64,13.12 29.92,13.12 Z M112.48,9.44 C112.64,9.44 112.8,9.6 112.96,9.76 L112.96,14.88 C112.96,15.2 112.64,15.36 112.48,15.36 L104,15.36 C103.68,15.36 103.52,15.04 103.52,14.88 L103.52,9.92 C103.52,9.6 103.84,9.44 104,9.44 L112.48,9.44 Z M112.32,16.64 L96,16.64 C95.84,16.64 95.52,16.8 95.52,17.12 L93.44,25.12 L93.28,25.6 L90.72,17.12 C90.72,16.96 90.4,16.64 90.24,16.64 L83.84,16.64 C83.68,16.64 83.36,16.8 83.36,17.12 L80.96,25.12 L80.8,25.6 L80.64,25.12 L79.68,21.12 L78.72,17.12 C78.72,16.96 78.4,16.64 78.24,16.64 L65.44,16.64 L65.44,9.76 C65.44,9.6 65.12,9.28 64.8,9.44 L56.8,12 C56.48,12 56.32,12.16 56.32,12.48 L56.32,16.8 L54.24,16.8 C54.08,16.8 53.76,16.96 53.76,17.28 L53.76,23.36 C53.76,23.52 53.92,23.84 54.24,23.84 L56.32,23.84 L56.32,31.36 C56.32,36.64 59.2,39.04 64.48,39.04 C66.72,39.04 68.8,38.56 70.24,37.76 L70.24,31.36 C70.24,31.04 69.92,30.88 69.76,31.04 C68.96,31.36 68.16,31.52 67.52,31.52 C66.08,31.52 65.28,30.88 65.28,29.28 L65.28,23.84 L69.92,23.84 C70.08,23.84 70.4,23.68 70.4,23.36 L70.4,18.24 L76.48,38.4 C76.48,38.56 76.8,38.88 76.96,38.88 L83.68,38.88 C83.84,38.88 84.16,38.72 84.16,38.4 L87.04,29.44 L88.48,34.08 L89.76,38.4 C89.76,38.56 90.08,38.88 90.24,38.88 L96.96,38.88 C97.12,38.88 97.44,38.72 97.44,38.4 L103.52,18.24 L103.52,38.4 C103.52,38.56 103.68,38.88 104,38.88 L112.16,38.88 C112.32,38.88 112.64,38.72 112.64,38.4 L112.64,17.12 C112.64,16.96 112.48,16.64 112.32,16.64 Z M123.04,9.44 L114.88,9.44 C114.72,9.44 114.4,9.6 114.4,9.92 L114.4,38.24 C114.4,38.4 114.56,38.72 114.88,38.72 L123.04,38.72 C123.2,38.72 123.52,38.56 123.52,38.24 L123.52,9.76 C123.52,9.6 123.36,9.44 123.04,9.44 Z M133.92,9.44 L125.44,9.44 C125.28,9.44 124.96,9.6 124.96,9.92 L124.96,14.88 C124.96,15.04 125.12,15.36 125.44,15.36 L133.92,15.36 C134.08,15.36 134.4,15.2 134.4,14.88 L134.4,9.76 C134.4,9.6 134.24,9.44 133.92,9.44 Z M133.76,16.64 L125.6,16.64 C125.44,16.64 125.12,16.8 125.12,17.12 L125.12,38.08 C125.12,38.24 125.28,38.56 125.6,38.56 L133.76,38.56 C133.92,38.56 134.24,38.4 134.24,38.08 L134.24,17.12 C134.24,16.96 134.08,16.64 133.76,16.64 Z M159.52,27.52 C159.52,33.6 154.4,38.88 147.2,38.88 C140.16,38.88 135.04,33.6 135.04,27.52 C135.04,21.44 140.16,16.16 147.36,16.16 C154.4,16.16 159.52,21.44 159.52,27.52 Z M150.88,27.68 C150.88,25.44 149.28,23.68 147.36,23.84 C145.28,23.84 143.84,25.6 143.84,27.68 C143.84,29.76 145.44,31.52 147.36,31.52 C149.44,31.52 150.88,29.76 150.88,27.68 Z"/>
</svg>
